<svg width="472" height="471" viewBox="0 0 472 471" fill="none" xmlns="http://www.w3.org/2000/svg">
<path d="M235.795 470.863C177.5 470.796 121.308 449.078 78.1194 409.924C34.9308 370.769 7.8248 316.969 2.0596 258.959C-3.7056 200.95 12.281 142.867 46.9182 95.9774C81.5554 49.0882 132.374 16.7355 189.515 5.19538C246.657 -6.34469 306.048 3.75052 356.168 33.5227C406.287 63.2948 443.562 110.622 460.761 166.322C477.96 222.022 473.857 282.125 449.249 334.972C424.641 387.819 381.281 429.641 327.581 452.327C298.543 464.612 267.325 470.917 235.795 470.863Z" fill="#00F6F7"/>
<path d="M155.561 335.683C152.09 335.669 148.701 334.629 145.82 332.695C142.938 330.76 140.693 328.016 139.367 324.809C138.041 321.601 137.692 318.074 138.366 314.669C139.039 311.264 140.704 308.134 143.151 305.673L311.073 137.751C312.705 136.122 314.643 134.829 316.774 133.948C318.906 133.067 321.19 132.615 323.497 132.617C325.803 132.619 328.087 133.075 330.217 133.959C332.347 134.843 334.282 136.139 335.912 137.771C337.542 139.403 338.834 141.34 339.715 143.472C340.596 145.604 341.048 147.888 341.047 150.194C341.045 152.501 340.589 154.784 339.704 156.915C338.82 159.045 337.525 160.98 335.893 162.61L167.971 330.532C166.344 332.166 164.41 333.463 162.28 334.347C160.151 335.231 157.867 335.685 155.561 335.683Z" fill="white"/>
<path d="M170.897 225.244C167.116 225.247 163.434 224.029 160.4 221.771L114.78 187.781C112.592 186.142 110.815 184.015 109.591 181.57C108.367 179.124 107.73 176.427 107.73 173.693C107.73 170.958 108.367 168.261 109.591 165.816C110.815 163.371 112.592 161.244 114.78 159.605L160.4 125.615C162.25 124.236 164.353 123.236 166.59 122.67C168.827 122.104 171.153 121.985 173.436 122.318C175.719 122.652 177.914 123.431 179.896 124.613C181.877 125.795 183.607 127.355 184.985 129.205C186.364 131.055 187.365 133.159 187.93 135.395C188.496 137.632 188.615 139.958 188.282 142.241C187.949 144.524 187.169 146.719 185.987 148.701C184.805 150.682 183.245 152.412 181.395 153.79L154.663 173.693L181.395 193.595C184.357 195.8 186.549 198.882 187.659 202.404C188.769 205.925 188.741 209.707 187.579 213.212C186.416 216.716 184.179 219.766 181.184 221.926C178.189 224.086 174.59 225.247 170.897 225.244Z" fill="white"/>
<path d="M300.692 347.858C297 347.861 293.401 346.7 290.406 344.54C287.411 342.38 285.174 339.331 284.011 335.826C282.849 332.321 282.821 328.539 283.931 325.018C285.041 321.496 287.233 318.414 290.195 316.21L316.888 296.307L290.195 276.405C288.291 275.049 286.678 273.328 285.448 271.341C284.218 269.353 283.398 267.141 283.034 264.833C282.671 262.524 282.771 260.167 283.33 257.898C283.89 255.629 284.896 253.495 286.29 251.62C287.685 249.745 289.44 248.167 291.452 246.979C293.464 245.791 295.693 245.016 298.008 244.7C300.323 244.384 302.679 244.534 304.935 245.14C307.192 245.746 309.305 246.796 311.151 248.229L356.809 282.219C358.998 283.858 360.775 285.985 361.999 288.43C363.223 290.876 363.86 293.573 363.86 296.307C363.86 299.042 363.223 301.739 361.999 304.184C360.775 306.629 358.998 308.756 356.809 310.395L311.151 344.385C308.129 346.638 304.461 347.856 300.692 347.858Z" fill="white"/>
</svg>
