<svg width="652" height="800" viewBox="0 0 652 800" fill="none" xmlns="http://www.w3.org/2000/svg">
<path d="M517.27 0H251.464H230.867L216.313 14.5531L15.0938 215.784L0.540649 230.338V250.925V665.791C0.540649 739.791 60.7407 800.002 134.753 800.002H517.27C591.259 800.002 651.459 739.791 651.459 665.791V134.213C651.459 60.2 591.259 0 517.27 0ZM601.777 665.789C601.777 712.472 563.942 750.306 517.27 750.306H134.753C88.0594 750.306 50.225 712.472 50.225 665.789V250.923H181.031C219.914 250.923 251.464 219.395 251.464 180.502V49.6938H517.27C563.942 49.6938 601.777 87.5281 601.777 134.213V665.789Z" fill="#00F6F7"/>
<path d="M180.944 395.609C172.98 395.609 167.089 401.316 167.089 410.425V447.07C167.089 447.834 166.697 448.217 165.955 448.217H123.778C123.036 448.217 122.644 447.834 122.644 447.07V410.425C122.644 401.314 116.752 395.609 108.788 395.609C100.628 395.609 94.736 401.316 94.736 410.425V512.213C94.736 521.322 100.431 527.017 108.592 527.017C116.578 527.017 122.644 521.322 122.644 512.213V474.236C122.644 473.472 123.036 473.089 123.778 473.089H165.955C166.697 473.089 167.089 473.47 167.089 474.236V512.213C167.089 521.322 172.98 527.017 180.944 527.017C189.105 527.017 194.995 521.322 194.995 512.213V410.425C194.995 401.314 189.105 395.609 180.944 395.609Z" fill="#00F6F7"/>
<path d="M293.577 396.755H219.695C211.164 396.755 205.644 401.883 205.644 409.291C205.644 416.502 211.164 421.63 219.695 421.63H241.536C242.298 421.63 242.67 422.011 242.67 422.764V512.213C242.67 521.136 248.563 527.017 256.548 527.017C264.709 527.017 270.6 521.136 270.6 512.213V422.764C270.6 422.011 270.97 421.63 271.734 421.63H293.575C302.106 421.63 307.627 416.502 307.627 409.291C307.628 401.881 302.108 396.755 293.577 396.755Z" fill="#00F6F7"/>
<path d="M423.27 395.609C414.914 395.609 410.353 400.17 406.186 410.044L379.217 472.328H378.453L350.917 410.044C346.552 400.17 341.992 395.609 333.636 395.609C324.342 395.609 318.253 402.069 318.253 412.323V513.544C318.253 522.086 323.578 527.017 331.172 527.017C338.394 527.017 343.717 522.086 343.717 513.544V451.25H344.655L364.795 497.583C368.766 506.703 371.995 509.366 378.455 509.366C384.913 509.366 388.142 506.703 392.136 497.583L412.08 451.25H413.019V513.544C413.019 522.086 418.145 527.017 425.739 527.017C433.355 527.017 438.483 522.086 438.483 513.544V412.323C438.48 402.067 432.588 395.609 423.27 395.609Z" fill="#00F6F7"/>
<path d="M534.375 501.008H488.425C487.661 501.008 487.291 500.627 487.291 499.861V410.424C487.291 401.499 481.4 395.608 473.436 395.608C465.253 395.608 459.384 401.499 459.384 410.424V511.828C459.384 520.186 464.881 525.88 473.436 525.88H534.377C542.931 525.88 548.43 520.752 548.43 513.345C548.428 506.134 542.93 501.008 534.375 501.008Z" fill="#00F6F7"/>
</svg>
