<svg width="567" height="567" viewBox="0 0 567 567" fill="none" xmlns="http://www.w3.org/2000/svg">
<path d="M200.34 66.6667H140.34C103.003 66.6667 84.3207 66.6667 70.06 73.933C57.5157 80.3243 47.3243 90.5157 40.933 103.06C33.6667 117.321 33.6667 136.003 33.6667 173.34V426.673C33.6667 464.01 33.6667 482.67 40.933 496.93C47.3243 509.473 57.5157 519.683 70.06 526.073C84.3067 533.333 102.966 533.333 140.23 533.333H393.77C431.033 533.333 449.667 533.333 463.913 526.073C476.457 519.683 486.683 509.463 493.073 496.92C500.333 482.673 500.333 464.033 500.333 426.77V366.667M533.667 200V33.3333M533.667 33.3333H367M533.667 33.3333L300.333 266.667" stroke="white" stroke-width="66.6667" stroke-linecap="round" stroke-linejoin="round"/>
</svg>
