<svg width="290" height="290" viewBox="0 0 290 290" fill="none" xmlns="http://www.w3.org/2000/svg">
<circle cx="145" cy="145" r="145" fill="white"/>
<circle cx="145" cy="145" r="145" stroke="black"/>
<path d="M119.136 129.318C118.621 127.409 117.864 125.727 116.864 124.273C115.864 122.788 114.636 121.53 113.182 120.5C111.727 119.47 110.061 118.697 108.182 118.182C106.303 117.636 104.242 117.364 102 117.364C97.4849 117.364 93.5758 118.455 90.2727 120.636C87 122.818 84.4697 126 82.6818 130.182C80.8939 134.333 80 139.379 80 145.318C80 151.288 80.8636 156.379 82.5909 160.591C84.3182 164.803 86.8182 168.015 90.0909 170.227C93.3636 172.439 97.3333 173.545 102 173.545C106.121 173.545 109.606 172.879 112.455 171.545C115.333 170.182 117.515 168.258 119 165.773C120.485 163.288 121.227 160.364 121.227 157L125.409 157.5H102.773V141.091H142.909V153.409C142.909 161.742 141.136 168.879 137.591 174.818C134.076 180.758 129.227 185.318 123.045 188.5C116.894 191.682 109.818 193.273 101.818 193.273C92.9394 193.273 85.1364 191.348 78.4091 187.5C71.6818 183.652 66.4394 178.167 62.6818 171.045C58.9242 163.894 57.0455 155.409 57.0455 145.591C57.0455 137.955 58.1818 131.182 60.4545 125.273C62.7273 119.333 65.8939 114.303 69.9545 110.182C74.0455 106.061 78.7727 102.939 84.1364 100.818C89.5303 98.697 95.3333 97.6364 101.545 97.6364C106.939 97.6364 111.955 98.4091 116.591 99.9545C121.258 101.5 125.379 103.682 128.955 106.5C132.561 109.318 135.485 112.667 137.727 116.545C139.97 120.424 141.364 124.682 141.909 129.318H119.136ZM156.17 192V98.9091H178.67V138.273H179.898L210.67 98.9091H237.17L204.17 140.455L237.761 192H210.852L187.67 155.409L178.67 166.773V192H156.17Z" fill="black"/>
</svg>
