<svg width="651" height="800" viewBox="0 0 651 800" fill="none" xmlns="http://www.w3.org/2000/svg">
<path d="M516.73 0H250.923H230.327L215.772 14.5531L14.5531 215.784L0 230.338V250.925V665.791C0 739.791 60.2 800.002 134.213 800.002H516.73C590.719 800.002 650.919 739.791 650.919 665.791V134.213C650.919 60.2 590.719 0 516.73 0ZM601.236 665.789C601.236 712.472 563.402 750.306 516.73 750.306H134.213C87.5188 750.306 49.6844 712.472 49.6844 665.789V250.923H180.491C219.373 250.923 250.923 219.395 250.923 180.502V49.6938H516.73C563.402 49.6938 601.236 87.5281 601.236 134.213V665.789Z" fill="#00F6F7"/>
<path d="M219.383 462.939H294.827V468.935H226.299V514.065H290.74V520.062H226.299V569.611H295.613V575.607H219.383V462.939ZM301.585 462.939H309.601L345.123 512.487L381.43 462.939L430.814 400L349.681 517.695L391.489 575.607H383.159L345.123 522.902L306.929 575.607H298.756L340.879 517.695L301.585 462.939ZM394.475 468.935V462.939H480.45V468.935H440.842V575.607H433.926V468.935H394.475ZM125 462.939H133.645L252.848 641.316L203.587 575.607L132.23 471.46L131.916 575.607H125V462.939ZM479.753 567.801C478.34 567.801 477.28 566.706 477.28 565.292C477.28 563.877 478.34 562.782 479.753 562.782C481.183 562.782 482.226 563.877 482.226 565.292C482.226 566.706 481.183 567.801 479.753 567.801ZM486.548 561.199H490.249C490.299 563.203 491.763 564.551 493.916 564.551C496.321 564.551 497.684 563.102 497.684 560.39V543.211H501.451V560.407C501.451 565.292 498.625 568.104 493.949 568.104C489.559 568.104 486.548 565.376 486.548 561.199ZM506.38 560.98H510.114C510.433 563.287 512.687 564.753 515.934 564.753C518.961 564.753 521.182 563.186 521.182 561.03C521.182 559.178 519.769 558.066 516.556 557.308L513.427 556.55C509.037 555.523 507.036 553.401 507.036 549.83C507.036 545.502 510.568 542.622 515.866 542.622C520.795 542.622 524.394 545.502 524.613 549.594H520.946C520.593 547.354 518.642 545.957 515.816 545.957C512.839 545.957 510.854 547.388 510.854 549.578C510.854 551.312 512.132 552.306 515.295 553.047L517.969 553.704C522.948 554.866 525 556.887 525 560.542C525 565.191 521.4 568.104 515.648 568.104C510.265 568.104 506.649 565.325 506.38 560.98Z" fill="#00F6F7"/>
</svg>
