<svg width="652" height="800" viewBox="0 0 652 800" fill="none" xmlns="http://www.w3.org/2000/svg">
<path d="M517.27 0H251.464H230.867L216.312 14.5531L15.0937 215.784L0.540619 230.338V250.925V665.791C0.540619 739.791 60.7406 800.002 134.753 800.002H517.27C591.259 800.002 651.459 739.791 651.459 665.791V134.213C651.459 60.2 591.259 0 517.27 0ZM601.777 665.789C601.777 712.472 563.942 750.306 517.27 750.306H134.753C88.0594 750.306 50.225 712.472 50.225 665.789V250.923H181.031C219.914 250.923 251.464 219.395 251.464 180.502V49.6938H517.27C563.942 49.6938 601.777 87.5281 601.777 134.213V665.789Z" fill="#00F6F7"/>
<path d="M190.959 420.233C200.08 420.233 205.184 423.625 210.489 430.836C214.722 436.781 218.977 438.909 224.278 438.909C232.134 438.909 238.505 433.17 238.505 424.901C238.505 421.509 237.436 418.53 235.733 415.562C228.511 402.612 212.605 392.642 190.959 392.642C165.692 392.642 147.016 404.522 139.378 428.087C136.411 437.634 135.362 445.064 135.362 467.133C135.362 489.203 136.409 496.634 139.378 506.18C147.016 529.744 165.692 541.625 190.959 541.625C212.605 541.625 228.511 531.653 235.733 518.703C237.436 515.736 238.505 512.758 238.505 509.366C238.505 501.084 232.133 495.358 224.278 495.358C218.977 495.358 214.722 497.484 210.489 503.42C205.186 510.642 200.08 514.036 190.959 514.036C179.286 514.036 172.5 507.883 169.314 498.119C167.612 492.817 166.98 487.722 166.98 467.134C166.98 446.548 167.614 441.453 169.314 436.151C172.5 426.386 179.286 420.233 190.959 420.233Z" fill="#00F6F7"/>
<path d="M324.67 452.492L317.033 451.424C300.275 449.089 294.536 443.58 294.536 435.506C294.536 426.386 301.322 420.014 314.064 420.014C322.967 420.014 331.891 422.567 338.895 425.959C341.862 427.444 345.048 428.294 348.016 428.294C355.653 428.294 361.609 422.566 361.609 414.711C361.609 409.616 359.275 405.372 354.169 402.186C345.681 396.883 329.775 392.639 313.847 392.639C282.644 392.639 262.702 410.247 262.702 436.78C262.702 462.255 278.827 476.045 308.327 480.081L315.984 481.139C333.156 483.474 338.262 488.777 338.262 497.264C338.262 507.247 329.972 514.252 314.697 514.252C304.092 514.252 295.605 511.491 283.713 504.913C281.159 503.419 277.975 502.359 274.592 502.359C266.52 502.359 260.584 508.513 260.584 516.159C260.584 521.244 263.138 526.131 268.003 529.316C277.559 535.252 293.052 541.622 313.431 541.622C350.981 541.622 370.097 522.313 370.097 496.205C370.098 470.102 354.605 456.736 324.67 452.492Z" fill="#00F6F7"/>
<path d="M455.214 452.492L447.577 451.424C430.798 449.089 425.08 443.58 425.08 435.506C425.08 426.386 431.867 420.014 444.586 420.014C453.511 420.014 462.434 422.567 469.417 425.959C472.406 427.444 475.592 428.294 478.559 428.294C486.195 428.294 492.131 422.566 492.131 414.711C492.131 409.616 489.797 405.372 484.712 402.186C476.225 396.883 460.297 392.639 444.391 392.639C413.189 392.639 393.245 410.247 393.245 436.78C393.245 462.255 409.37 476.045 438.87 480.081L446.508 481.139C463.702 483.474 468.786 488.777 468.786 497.264C468.786 507.247 460.517 514.252 445.242 514.252C434.617 514.252 426.13 511.491 414.259 504.913C411.706 503.419 408.52 502.359 405.117 502.359C397.066 502.359 391.109 508.513 391.109 516.159C391.109 521.244 393.662 526.131 398.55 529.316C408.108 535.252 423.6 541.622 443.956 541.622C481.53 541.622 500.622 522.313 500.622 496.205C500.622 470.102 485.13 456.736 455.214 452.492Z" fill="#00F6F7"/>
</svg>
