<svg width="700" height="682" viewBox="0 0 700 682" fill="none" xmlns="http://www.w3.org/2000/svg">
<path fill-rule="evenodd" clip-rule="evenodd" d="M350 -2.88075e-05C156.65 -2.88075e-05 0 156.5 0 349.65C0 504.15 100.3 635.15 239.35 681.4C256.85 684.6 263.25 673.8 263.25 664.55C263.25 656.25 262.95 634.25 262.75 605.05C165.4 626.2 144.9 558.2 144.9 558.2C128.95 517.8 106 507.05 106 507.05C74.25 485.35 108.4 485.8 108.4 485.8C143.55 488.3 162.05 521.8 162.05 521.8C193.25 575.3 243.95 559.8 263.9 550.9C267.05 528.3 276.1 512.9 286.1 504.15C208.4 495.35 126.7 465.35 126.7 331.35C126.7 293.2 140.35 261.95 162.7 237.55C159.1 228.7 147.1 193.15 166.2 145.05C166.2 145.05 195.5 135.6 262.4 180.85C290.952 173.071 320.407 169.103 350 169.05C379.75 169.2 409.7 173.05 437.65 180.85C504.45 135.6 533.8 145 533.8 145C552.9 193.15 540.9 228.7 537.3 237.5C559.7 262 573.3 293.2 573.3 331.35C573.3 465.65 491.4 495.25 413.45 503.85C426 514.65 437.2 536 437.2 568.65C437.2 615.35 436.75 653.05 436.75 664.55C436.75 673.9 443.1 684.75 460.85 681.35C530.469 658.136 591.023 613.614 633.942 554.085C676.862 494.557 699.971 423.037 700 349.65C699.947 256.873 663.044 167.916 597.408 102.345C531.771 36.7743 442.777 -0.0398227 350 -2.88075e-05Z" fill="white"/>
</svg>
