<svg width="652" height="800" viewBox="0 0 652 800" fill="none" xmlns="http://www.w3.org/2000/svg">
<path d="M517.27 0H251.464H230.867L216.313 14.5531L15.0938 215.784L0.540649 230.338V250.925V665.791C0.540649 739.791 60.7407 800.002 134.753 800.002H517.27C591.259 800.002 651.459 739.791 651.459 665.791V134.213C651.459 60.2 591.259 0 517.27 0ZM601.777 665.789C601.777 712.472 563.942 750.306 517.27 750.306H134.753C88.0594 750.306 50.225 712.472 50.225 665.789V250.923H181.031C219.914 250.923 251.464 219.395 251.464 180.502V49.6938H517.27C563.942 49.6938 601.777 87.5281 601.777 134.213V665.789Z" fill="#00F6F7"/>
<path d="M278.084 393.7C269.161 393.7 262.592 400.072 262.592 410.25V489.63C262.592 507.456 254.738 514.036 242.845 514.036C238.177 514.036 233.311 512.552 229.906 510.217C225.238 507.031 221.834 505.547 218.016 505.547C210.161 505.547 204.225 511.275 204.225 518.703C204.225 522.522 205.709 526.341 208.48 529.527C214.414 536.324 228.422 541.625 241.799 541.625C274.899 541.625 293.795 522.947 293.795 487.502V410.25C293.795 400.072 287.205 393.7 278.084 393.7Z" fill="#00F6F7"/>
<path d="M384.214 452.492L376.577 451.424C359.798 449.089 354.081 443.58 354.081 435.506C354.081 426.386 360.867 420.014 373.587 420.014C382.511 420.014 391.436 422.567 398.417 425.959C401.406 427.444 404.594 428.294 407.561 428.294C415.198 428.294 421.133 422.566 421.133 414.711C421.133 409.616 418.798 405.372 413.714 402.186C405.227 396.883 389.297 392.639 373.392 392.639C342.189 392.639 322.247 410.247 322.247 436.78C322.247 462.255 338.372 476.045 367.87 480.081L375.508 481.139C392.702 483.474 397.786 488.777 397.786 497.264C397.786 507.247 389.516 514.252 374.244 514.252C363.617 514.252 355.128 511.491 343.259 504.913C340.706 503.419 337.52 502.359 334.117 502.359C326.066 502.359 320.109 508.513 320.109 516.159C320.109 521.244 322.663 526.131 327.55 529.316C337.106 535.252 352.598 541.622 372.956 541.622C410.53 541.622 429.622 522.313 429.622 496.205C429.62 470.102 414.13 456.736 384.214 452.492Z" fill="#00F6F7"/>
</svg>
