<svg width="651" height="800" viewBox="0 0 651 800" fill="none" xmlns="http://www.w3.org/2000/svg">
<path d="M516.73 0H250.923H230.327L215.772 14.5531L14.5531 215.784L0 230.338V250.925V665.791C0 739.791 60.2 800.002 134.213 800.002H516.73C590.719 800.002 650.919 739.791 650.919 665.791V134.213C650.919 60.2 590.719 0 516.73 0ZM601.236 665.789C601.236 712.472 563.402 750.306 516.73 750.306H134.213C87.5188 750.306 49.6844 712.472 49.6844 665.789V250.923H180.491C219.373 250.923 250.923 219.395 250.923 180.502V49.6938H516.73C563.402 49.6938 601.236 87.5281 601.236 134.213V665.789Z" fill="#00F6F7"/>
<path d="M325 447.331C320.318 447.331 315.683 448.254 311.357 450.046C307.032 451.838 303.102 454.465 299.792 457.776C296.481 461.087 293.855 465.019 292.064 469.345C290.272 473.672 289.35 478.309 289.35 482.992C289.35 487.675 290.272 492.312 292.064 496.639C293.855 500.965 296.481 504.897 299.792 508.208C303.102 511.519 307.032 514.146 311.357 515.938C315.683 517.73 320.318 518.653 325 518.653C329.682 518.653 334.317 517.73 338.643 515.938C342.968 514.146 346.898 511.519 350.208 508.208C353.519 504.897 356.145 500.965 357.936 496.639C359.728 492.312 360.65 487.675 360.65 482.992C360.65 478.309 359.728 473.672 357.936 469.345C356.145 465.019 353.519 461.087 350.208 457.776C346.898 454.465 342.968 451.838 338.643 450.046C334.317 448.254 329.682 447.331 325 447.331ZM225.133 553.93L217.267 551.929C158.633 537.108 125 511.951 125 482.925C125 453.9 158.633 428.742 217.267 413.921L225.133 411.937L227.35 419.739C233.29 440.208 240.887 460.157 250.067 479.391L251.75 482.942L250.067 486.493C240.872 505.72 233.274 525.671 227.35 546.144L225.133 553.93ZM213.617 432.143C169.05 444.664 141.7 463.819 141.7 482.925C141.7 502.014 169.05 521.17 213.617 533.707C219.067 516.368 225.648 499.404 233.317 482.925C225.639 466.45 219.058 449.486 213.617 432.143ZM424.867 553.93L422.65 546.111C416.716 525.644 409.113 505.699 399.917 486.476L398.233 482.925L399.917 479.374C409.109 460.144 416.713 440.194 422.65 419.723L424.867 411.92L432.75 413.904C491.367 428.726 525 453.883 525 482.925C525 511.967 491.367 537.108 432.75 551.929L424.867 553.93ZM416.683 482.925C424.683 500.247 431.3 517.269 436.383 533.707C480.967 521.17 508.3 502.014 508.3 482.925C508.3 463.819 480.95 444.68 436.383 432.143C430.94 449.486 424.359 466.45 416.683 482.925ZM213.5 432.06L211.283 424.274C194.8 366.157 199.8 324.511 225 309.973C249.717 295.702 289.4 312.557 330.983 355.253L336.65 361.072L330.983 366.89C316.208 382.255 302.707 398.798 290.617 416.355L288.367 419.573L284.45 419.906C263.182 421.583 242.085 424.984 221.367 430.076L213.5 432.06ZM245.1 321.526C240.633 321.526 236.683 322.493 233.35 324.411C216.783 333.964 213.85 367.174 225.267 411.987C243.027 408.035 261.027 405.245 279.15 403.635C289.607 388.761 301.032 374.593 313.35 361.222C287.35 335.897 262.733 321.526 245.1 321.526ZM404.917 660.996C404.9 660.996 404.9 660.996 404.917 660.996C381.167 660.996 350.667 643.107 319.017 610.597L313.35 604.779L319.017 598.96C333.789 583.591 347.283 567.042 359.367 549.479L361.617 546.261L365.517 545.928C386.796 544.26 407.904 540.864 428.633 535.775L436.5 533.791L438.733 541.593C455.183 599.677 450.2 641.34 425 655.861C418.879 659.323 411.948 661.095 404.917 660.996ZM336.65 604.629C362.65 629.953 387.267 644.324 404.9 644.324C409.35 644.324 413.333 643.357 416.65 641.44C433.217 631.887 436.167 598.66 424.733 553.847C406.968 557.805 388.963 560.595 370.833 562.199C360.389 577.083 348.969 591.257 336.65 604.629ZM436.5 432.06L428.633 430.076C407.907 424.97 386.798 421.568 365.517 419.906L361.617 419.573L359.367 416.355C347.289 398.792 333.794 382.249 319.017 366.89L313.35 361.072L319.017 355.253C360.583 312.574 400.25 295.719 425 309.973C450.2 324.511 455.2 366.157 438.733 424.258L436.5 432.06ZM370.833 403.635C389.867 405.368 407.95 408.186 424.733 411.987C436.167 367.174 433.217 333.964 416.65 324.411C400.183 314.891 369.233 329.479 336.65 361.222C348.962 374.594 360.382 388.762 370.833 403.635ZM245.1 660.996C238.063 661.098 231.126 659.326 225 655.861C199.8 641.34 194.8 599.694 211.283 541.593L213.483 533.791L221.35 535.775C240.6 540.626 261.833 544.044 284.433 545.928L288.35 546.261L290.583 549.479C302.676 567.04 316.176 583.588 330.95 598.96L336.617 604.779L330.95 610.597C299.317 643.107 268.817 660.996 245.1 660.996ZM225.267 553.847C213.833 598.66 216.783 631.887 233.35 641.44C249.8 650.826 280.733 636.355 313.35 604.629C301.037 591.247 289.612 577.074 279.15 562.199C261.026 560.596 243.026 557.806 225.267 553.847ZM325 564.317C311.283 564.317 297.183 563.716 283.067 562.549L279.15 562.216L276.9 558.998C268.915 547.521 261.409 535.719 254.4 523.621C247.412 511.513 240.929 499.121 234.967 486.476L233.317 482.925L234.967 479.374C240.928 466.729 247.411 454.337 254.4 442.23C261.3 430.293 268.883 418.389 276.9 406.852L279.15 403.635L283.067 403.301C310.978 400.934 339.039 400.934 366.95 403.301L370.85 403.635L373.083 406.852C389.069 429.81 403.102 454.069 415.033 479.374L416.717 482.925L415.033 486.476C403.131 511.796 389.097 536.058 373.083 558.998L370.85 562.216L366.95 562.549C352.833 563.716 338.717 564.317 325 564.317ZM288.383 546.244C313.05 548.095 336.95 548.095 361.633 546.244C375.414 526.093 387.649 504.926 398.233 482.925C387.668 460.912 375.426 439.743 361.617 419.606C337.241 417.756 312.759 417.756 288.383 419.606C274.568 439.739 262.326 460.908 251.767 482.925C262.363 504.923 274.603 526.089 288.383 546.244Z" fill="#00F6F7"/>
</svg>
